<svg height="512pt" viewBox="0 -40 512 512" width="512pt" xmlns="http://www.w3.org/2000/svg"><path d="m189.933594 325.882812h132.132812v61.042969h-132.132812zm0 0" fill="#aaccc6"/><path d="m501.699219 340.183594h-491.398438c-5.6875 0-10.300781-4.613282-10.300781-10.300782v-319.582031c0-5.6875 4.613281-10.300781 10.300781-10.300781h491.398438c5.6875 0 10.300781 4.613281 10.300781 10.300781v319.582031c0 5.6875-4.613281 10.300782-10.300781 10.300782zm0 0" fill="#75a4c8"/><path d="m512 10.304688v319.574218c0 5.695313-4.613281 10.300782-10.300781 10.300782h-59.75c5.6875 0 10.300781-4.605469 10.300781-10.300782v-319.574218c0-5.695313-4.613281-10.30078175-10.300781-10.30078175h59.75c5.6875 0 10.300781 4.60546875 10.300781 10.30078175zm0 0" fill="#628fb1"/><path d="m482.640625 40.179688v239.382812c0 5.6875-4.617187 10.304688-10.300781 10.304688h-432.679688c-5.683594 0-10.300781-4.617188-10.300781-10.304688v-239.382812c0-5.695313 4.617187-10.300782 10.300781-10.300782h432.679688c5.683594 0 10.300781 4.605469 10.300781 10.300782zm0 0" fill="#60daff"/><path d="m482.640625 40.179688v239.382812c0 5.6875-4.617187 10.304688-10.300781 10.304688h-20.089844v-259.988282h20.089844c5.683594 0 10.300781 4.605469 10.300781 10.300782zm0 0" fill="#38aaff"/><path d="m482.640625 40.179688v18.132812h-453.28125v-18.132812c0-5.695313 4.617187-10.300782 10.300781-10.300782h432.679688c5.683594 0 10.300781 4.605469 10.300781 10.300782zm0 0" fill="#d9efec"/><path d="m482.640625 40.179688v18.132812h-30.390625v-28.433594h20.089844c5.683594 0 10.300781 4.605469 10.300781 10.300782zm0 0" fill="#c1dbd6"/><path d="m245.027344 98.464844h-2.199219v-2.203125c0-4.269531-3.460937-7.726563-7.726563-7.726563-4.265624 0-7.726562 3.460938-7.726562 7.726563v2.203125h-2.203125c-4.265625 0-7.726563 3.457031-7.726563 7.726562 0 4.265625 3.460938 7.722656 7.726563 7.722656h2.203125v2.203126c0 4.269531 3.460938 7.726562 7.726562 7.726562 4.265626 0 7.726563-3.457031 7.726563-7.726562v-2.203126h2.199219c4.269531 0 7.726562-3.457031 7.726562-7.722656.003906-4.269531-3.457031-7.726562-7.726562-7.726562zm0 0" fill="#f72b2b"/><path d="m285.769531 103.988281h-16.117187c-4.265625 0-7.726563-3.460937-7.726563-7.726562 0-4.269531 3.460938-7.726563 7.726563-7.726563h16.117187c4.265625 0 7.726563 3.460938 7.726563 7.726563 0 4.269531-3.460938 7.726562-7.726563 7.726562zm0 0" fill="#f72b2b"/><path d="m309.367188 122.980469h-39.714844c-4.265625 0-7.726563-3.457031-7.726563-7.722657 0-4.269531 3.460938-7.726562 7.726563-7.726562h39.714844c4.269531 0 7.726562 3.457031 7.726562 7.726562 0 4.265626-3.457031 7.722657-7.726562 7.722657zm0 0" fill="#f72b2b"/><g fill="#d9efec"><path d="m403.316406 156.742188h-62.839844c-4.269531 0-7.726562-3.460938-7.726562-7.726563 0-4.269531 3.457031-7.726563 7.726562-7.726563h62.839844c4.265625 0 7.726563 3.457032 7.726563 7.726563 0 4.265625-3.460938 7.726563-7.726563 7.726563zm0 0"/><path d="m314.460938 156.742188h-89.289063c-4.265625 0-7.726563-3.460938-7.726563-7.726563 0-4.269531 3.460938-7.726563 7.726563-7.726563h89.289063c4.265624 0 7.726562 3.457032 7.726562 7.726563 0 4.265625-3.460938 7.726563-7.726562 7.726563zm0 0"/><path d="m403.316406 179.011719h-178.144531c-4.265625 0-7.726563-3.457031-7.726563-7.726563 0-4.265625 3.460938-7.726562 7.726563-7.726562h178.144531c4.265625 0 7.726563 3.460937 7.726563 7.726562 0 4.269532-3.460938 7.726563-7.726563 7.726563zm0 0"/><path d="m403.316406 201.28125h-113.714844c-4.265624 0-7.726562-3.457031-7.726562-7.722656 0-4.269532 3.460938-7.726563 7.726562-7.726563h113.714844c4.265625 0 7.726563 3.457031 7.726563 7.726563 0 4.265625-3.460938 7.722656-7.726563 7.722656zm0 0"/><path d="m265.65625 201.28125h-40.484375c-4.269531 0-7.726563-3.457031-7.726563-7.722656 0-4.269532 3.457032-7.726563 7.726563-7.726563h40.484375c4.265625 0 7.726562 3.457031 7.726562 7.726563 0 4.265625-3.457031 7.722656-7.726562 7.722656zm0 0"/><path d="m403.316406 223.554688h-178.144531c-4.265625 0-7.726563-3.457032-7.726563-7.726563 0-4.265625 3.460938-7.726563 7.726563-7.726563h178.144531c4.265625 0 7.726563 3.460938 7.726563 7.726563 0 4.269531-3.460938 7.726563-7.726563 7.726563zm0 0"/><path d="m403.316406 245.824219h-178.144531c-4.265625 0-7.726563-3.457031-7.726563-7.726563 0-4.265625 3.460938-7.726562 7.726563-7.726562h178.144531c4.265625 0 7.726563 3.460937 7.726563 7.726562 0 4.269532-3.460938 7.726563-7.726563 7.726563zm0 0"/></g><path d="m184.074219 197.207031c0 31.367188-25.429688 56.796875-56.796875 56.796875-31.367188 0-56.796875-25.429687-56.796875-56.796875 0-24.617187 34.984375-77.378906 50.039062-98.945312 3.28125-4.699219 10.234375-4.699219 13.515625 0 15.054688 21.566406 50.039063 74.328125 50.039063 98.945312zm0 0" fill="#f55"/><path d="m184.070312 197.207031c0 31.371094-25.429687 56.800781-56.792968 56.800781-5.183594 0-10.210938-.699218-14.980469-2 24.097656-6.578124 41.808594-28.621093 41.808594-54.800781 0-20.804687-24.980469-61.707031-41.808594-86.902343 3.074219-4.613282 5.886719-8.703126 8.21875-12.039063 3.289063-4.707031 10.238281-4.707031 13.523437 0 15.054688 21.5625 50.03125 74.324219 50.03125 98.941406zm0 0" fill="#f72b2b"/><path d="m365.714844 410.554688h-219.429688c-5.6875 0-10.300781-4.609376-10.300781-10.300782v-3.023437c0-5.691407 4.613281-10.304688 10.300781-10.304688h219.429688c5.691406 0 10.300781 4.613281 10.300781 10.304688v3.023437c0 5.691406-4.613281 10.300782-10.300781 10.300782zm0 0" fill="#c1dbd6"/><path d="m398.410156 431.160156h-284.820312c-5.691406 0-10.304688-4.613281-10.304688-10.304687v-3.023438c0-5.691406 4.613282-10.300781 10.304688-10.300781h284.820312c5.691406 0 10.304688 4.609375 10.304688 10.300781v3.023438c0 5.691406-4.613282 10.304687-10.304688 10.304687zm0 0" fill="#d9efec"/></svg>