<svg height="512pt" viewBox="0 0 512 512" width="512pt" xmlns="http://www.w3.org/2000/svg"><path d="m120.542969 486h78.582031v-207.316406c0-2.839844-2.304688-5.144532-5.144531-5.144532h-68.292969c-2.839844 0-5.144531 2.304688-5.144531 5.144532zm0 0" fill="#ffcd6b"/><path d="m169.613281 486h29.511719v-207.316406c0-2.839844-2.304688-5.144532-5.144531-5.144532h-24.367188zm0 0" fill="#ffc143"/><path d="m244.128906 486h78.582032v-275.203125c0-2.84375-2.304688-5.144531-5.144532-5.144531h-68.292968c-2.839844 0-5.144532 2.304687-5.144532 5.144531zm0 0" fill="#ff4343"/><path d="m293.199219 486h29.511719v-275.203125c0-2.84375-2.304688-5.144531-5.144532-5.144531h-24.367187zm0 0" fill="#f72c2c"/><path d="m367.714844 486h78.582031v-347.007812c0-2.839844-2.304687-5.144532-5.144531-5.144532h-68.292969c-2.839844 0-5.144531 2.304688-5.144531 5.144532zm0 0" fill="#83afe4"/><path d="m416.789062 486h29.507813v-347.007812c0-2.839844-2.304687-5.144532-5.144531-5.144532h-24.363282zm0 0" fill="#5290d9"/><path d="m134.753906 172.179688c.164063 0 .328125-.003907.492188-.015626 1.765625-.109374 43.804687-2.9375 99.226562-21.136718 46.746094-15.347656 111.214844-44.785156 163.648438-99.308594l-1.789063 33.273438c-.230469 4.253906 3.035157 7.894531 7.292969 8.121093.140625.007813.28125.011719.421875.011719 4.070313 0 7.476563-3.1875 7.699219-7.304688l2.96875-55.09375c0-.054687-.003906-.105468 0-.160156.003906-.152344.003906-.304687 0-.460937-.003906-.113281-.007813-.222657-.015625-.335938-.011719-.152343-.027344-.304687-.046875-.457031-.015625-.105469-.027344-.210938-.042969-.316406-.03125-.171875-.070313-.339844-.109375-.503906-.019531-.085938-.035156-.171876-.0625-.253907-.066406-.238281-.140625-.476562-.234375-.707031-.003906-.007812-.003906-.019531-.007813-.027344-.191406-.496094-.441406-.972656-.734374-1.425781-.035157-.046875-.070313-.09375-.101563-.140625-.117187-.167969-.238281-.335938-.367187-.496094-.058594-.070312-.125-.140625-.1875-.210937-.109376-.128907-.222657-.253907-.34375-.375-.023438-.023438-.042969-.046875-.066407-.070313-.0625-.0625-.128906-.113281-.195312-.171875-.078125-.074219-.148438-.148437-.234375-.21875-.03125-.027343-.066406-.050781-.101563-.078125-.097656-.078125-.199219-.152344-.296875-.222656-.121094-.089844-.238281-.175781-.359375-.253906-.097656-.0625-.199219-.121094-.296875-.179688-.132812-.078125-.269531-.15625-.40625-.222656-.09375-.050781-.191406-.09375-.289062-.140625-.144532-.066406-.289063-.128906-.4375-.183594-.097656-.039062-.199219-.074219-.296875-.109375-.152344-.050781-.300781-.09375-.453125-.136718-.101563-.027344-.207032-.054688-.3125-.078126-.148438-.035156-.300782-.0625-.449219-.085937-.109375-.019531-.21875-.039063-.332031-.050781-.152344-.019532-.304688-.03125-.457032-.039063-.109374-.003906-.21875-.015625-.328124-.015625-.183594-.003906-.367188.003906-.550782.011719-.066406.003906-.132812 0-.199218.007813l-56.089844 4.441406c-4.25.335937-7.421875 4.054687-7.085938 8.300781.335938 4.25 4.058594 7.421875 8.300782 7.085937l36.890624-2.921874c-50.386718 53.085937-113.007812 81.765624-158.324218 96.699218-53.632813 17.667969-95.402344 20.507813-95.8125 20.535156-4.253906.269532-7.488282 3.9375-7.21875 8.191407.257812 4.089843 3.65625 7.230469 7.695312 7.230469zm0 0" fill="#5a5a5a"/><path d="m41.929688 464.921875v-459.777344c0-2.839843-2.300782-5.144531-5.144532-5.144531h-31.640625c-2.839843 0-5.144531 2.304688-5.144531 5.144531v501.710938c0 2.839843 2.304688 5.144531 5.144531 5.144531h501.710938c2.839843 0 5.144531-2.304688 5.144531-5.144531v-31.640625c0-2.84375-2.304688-5.144532-5.144531-5.144532h-459.777344c-2.84375 0-5.148437-2.304687-5.148437-5.148437zm0 0" fill="#5a5a5a"/><path d="m506.855469 512h-23.046875v-41.929688h23.046875c2.839843 0 5.144531 2.300782 5.144531 5.144532v31.640625c0 2.839843-2.304688 5.144531-5.144531 5.144531zm0 0" fill="#444"/></svg>