<?xml version="1.0" encoding="iso-8859-1"?>
<!-- Generator: Adobe Illustrator 19.0.0, SVG Export Plug-In . SVG Version: 6.00 Build 0)  -->
<svg version="1.1" id="Capa_1" xmlns="http://www.w3.org/2000/svg" xmlns:xlink="http://www.w3.org/1999/xlink" x="0px" y="0px"
	 viewBox="0 0 512 512" style="enable-background:new 0 0 512 512;" xml:space="preserve">
<g>
	<path style="fill:#2B4359;" d="M351.992,72.001c-1.368,0-2.756-0.352-4.023-1.091L256,17.262L164.031,70.91
		c-3.815,2.227-8.714,0.938-10.941-2.879c-2.226-3.816-0.937-8.715,2.879-10.941l96-56c2.49-1.453,5.57-1.453,8.062,0l96,56
		c3.816,2.226,5.105,7.125,2.879,10.941C357.424,70.58,354.745,72.001,351.992,72.001z"/>
	<path style="fill:#2B4359;" d="M256,512c-4.418,0-8-3.582-8-8v-88c0-4.418,3.582-8,8-8s8,3.582,8,8v88
		C264,508.418,260.418,512,256,512z"/>
	<path style="fill:#2B4359;" d="M288,512h-64c-4.418,0-8-3.582-8-8s3.582-8,8-8h64c4.418,0,8,3.582,8,8S292.418,512,288,512z"/>
</g>
<path style="fill:#EAECEE;" d="M480,56H32c-4.418,0-8,3.582-8,8v352c0,4.418,3.582,8,8,8h448c4.418,0,8-3.582,8-8V64
	C488,59.582,484.418,56,480,56z"/>
<path style="fill:#D5D9DE;" d="M488,64c0-4.418-3.582-8-8-8H32c-4.418,0-8,3.582-8,8v55.667h464V64z"/>
<path style="fill:#55697A;" d="M504,56H8c-4.418,0-8,3.582-8,8v32c0,4.418,3.582,8,8,8h496c4.418,0,8-3.582,8-8V64
	C512,59.582,508.418,56,504,56z"/>
<circle style="fill:#76E7EB;" cx="160" cy="192" r="64"/>
<path style="fill:#FD8E61;" d="M384.971,332l31.515-31.515c4.687-4.687,4.687-12.284,0-16.971c-4.686-4.687-12.285-4.687-16.971,0
	L368,315.03l-31.515-31.515c-4.686-4.687-12.285-4.687-16.971,0c-4.687,4.687-4.687,12.284,0,16.971L351.029,332l-31.515,31.515
	c-4.27,4.27-4.664,11.276-0.88,15.988c4.414,5.497,12.862,5.972,17.851,0.982L368,348.971l31.515,31.515
	c4.989,4.99,13.437,4.514,17.851-0.982c3.784-4.712,3.39-11.718-0.88-15.988L384.971,332z"/>
<path style="fill:#808E9B;" d="M428.997,185.753l-40-32c-3.448-2.76-8.483-2.201-11.244,1.25c-2.76,3.45-2.2,8.484,1.25,11.245
	L401.194,184H304c-22.056,0-40,17.944-40,40v80c0,13.234-10.766,24-24,24H96c-4.418,0-8,3.582-8,8s3.582,8,8,8h144
	c22.056,0,40-17.944,40-40v-80c0-13.234,10.767-24,24-24h97.194l-22.191,17.753c-3.149,2.519-3.922,7.15-1.748,10.55
	c2.525,3.947,8.075,4.877,11.742,1.944l40-32C432.938,195.096,432.938,188.904,428.997,185.753z"/>
<g>
</g>
<g>
</g>
<g>
</g>
<g>
</g>
<g>
</g>
<g>
</g>
<g>
</g>
<g>
</g>
<g>
</g>
<g>
</g>
<g>
</g>
<g>
</g>
<g>
</g>
<g>
</g>
<g>
</g>
</svg>
